<svg xmlns="http://www.w3.org/2000/svg" viewBox="0 0 50 50"><defs><style>.cls-1{isolation:isolate;}.cls-2{fill:#5d6d7e;}.cls-3{fill:#f2f9ff;}.cls-4{fill:#b8d1e6;}.cls-5{fill:#ff8e31;}.cls-6{mix-blend-mode:screen;}.cls-7{fill:#ff9d4d;}.cls-8{fill:#f28124;}</style></defs><g class="cls-1"><g id="Layer_1" data-name="Layer 1"><path class="cls-2" d="M26.78,45.51h-22a.31.31,0,1,1,0-.62h22a.31.31,0,1,1,0,.62Z"/><path class="cls-3" d="M15.05,42.14l4.52-7.88-3.84-3.84L7.85,34.94a16.7,16.7,0,0,1-2.95,9.8l-.07,0a.14.14,0,0,0,0,.17A.12.12,0,0,0,5,45l6.59-6.9a.57.57,0,0,1,.14-.58.56.56,0,0,1,.8,0,.59.59,0,0,1,0,.81.57.57,0,0,1-.59.13L5.05,45a.12.12,0,0,0,0,.17.12.12,0,0,0,.16,0,.2.2,0,0,0,0-.08A16.67,16.67,0,0,1,15.05,42.14Z"/><path class="cls-4" d="M5.25,45.09s0,0,0,.07a.12.12,0,0,1-.17,0,.11.11,0,0,1,0-.16l6.89-6.59a.57.57,0,0,0,.59-.14.58.58,0,0,0,0-.8l5.14-5.13,1.9,1.92-4.51,7.88A16.7,16.7,0,0,0,5.25,45.09Z"/><path class="cls-5" d="M45.5,9.4a4.91,4.91,0,0,0-8.38-3.47L19.56,23.49l6.94,6.93,17.61-17.6A4.74,4.74,0,0,0,45.5,9.4Z"/><g class="cls-6"><path class="cls-5" d="M26.35,18.81a.58.58,0,0,1,0-.84L34.28,10a.59.59,0,1,1,.84.84l-7.93,7.94A.6.6,0,0,1,26.35,18.81Z"/><path class="cls-5" d="M38.71,6.73a.52.52,0,0,1-.12-.17.6.6,0,0,1,.29-.79,3.91,3.91,0,0,1,1.71-.38,4,4,0,0,1,2.84,1.17.59.59,0,1,1-.84.84,2.85,2.85,0,0,0-2-.83,2.72,2.72,0,0,0-1.21.28A.59.59,0,0,1,38.71,6.73Z"/></g><polygon class="cls-7" points="19.81 34.49 15.5 30.19 20.17 24.1 25.9 29.82 19.81 34.49"/><rect class="cls-4" x="38.94" y="5.54" width="1.19" height="9.81" transform="translate(4.19 31.02) rotate(-45)"/><polygon class="cls-8" points="25.18 30.37 25.9 29.82 20.17 24.1 19.62 24.81 25.18 30.37"/><path class="cls-3" d="M36.49,6.56l-.21-.21a1.79,1.79,0,0,0-2.53,0l-6.83,6.9a.6.6,0,0,0,0,.84h0a.6.6,0,0,0,.84,0L34.6,7.2A.56.56,0,0,1,35,7a.59.59,0,0,1,.42.17l.21.21Z"/></g></g></svg>