<svg id="Layer_1" data-name="Layer 1" xmlns="http://www.w3.org/2000/svg" xmlns:xlink="http://www.w3.org/1999/xlink" viewBox="0 0 1734.13 1255.12"><defs><style>.cls-1{fill:none;}.cls-2{isolation:isolate;}.cls-3{clip-path:url(#clip-path);}.cls-4{fill:#745632;}.cls-5{clip-path:url(#clip-path-2);}.cls-6{fill:#684d2d;}.cls-7{fill:#b5864f;}.cls-8{fill:#644a2c;}.cls-9{clip-path:url(#clip-path-3);}.cls-10{clip-path:url(#clip-path-4);}.cls-11{fill:#6c502f;}.cls-12{clip-path:url(#clip-path-5);}.cls-13{clip-path:url(#clip-path-6);}.cls-14{clip-path:url(#clip-path-7);}.cls-15{clip-path:url(#clip-path-8);}.cls-16{clip-path:url(#clip-path-9);}.cls-17{clip-path:url(#clip-path-10);}.cls-18{clip-path:url(#clip-path-11);}.cls-19{fill:#694e2e;}.cls-20{fill:#6b4f2f;}.cls-21{fill:#735532;}.cls-22{clip-path:url(#clip-path-12);}.cls-23{clip-path:url(#clip-path-13);}.cls-24{clip-path:url(#clip-path-14);}.cls-25{fill:#6b4f2e;}.cls-26{clip-path:url(#clip-path-15);}.cls-27{clip-path:url(#clip-path-16);}.cls-28{clip-path:url(#clip-path-17);}.cls-29{clip-path:url(#clip-path-18);}.cls-30{clip-path:url(#clip-path-19);}.cls-31{clip-path:url(#clip-path-20);}</style><clipPath id="clip-path"><path class="cls-1" d="M894.74,455.51v25.88c0,71.2-1.9,450.65-5.91,514.56-4.26,64.66-10.22,129.33-21.77,194v-25.89c11.55-64.66,17.51-129.32,21.77-194C892.84,906.16,894.74,526.71,894.74,455.51Z"/></clipPath><clipPath id="clip-path-2"><path class="cls-1" d="M839.38,481.42V455.53c0,71.27,1.91,450.64,5.91,514.54,4.27,64.66,10.23,129.32,21.77,194v25.89c-11.54-64.66-17.5-129.33-21.77-194C841.29,932.05,839.38,552.68,839.38,481.42Z"/></clipPath><clipPath id="clip-path-3"><path class="cls-1" d="M1145,285.4v25.88a731.77,731.77,0,0,1-87.69,63.79c-15.16,9.23-30.46,18.25-46.24,26.34q-11.83,6.21-23.88,11.9c-4.28,2.08-8.51,4-12.87,5.95V393.38c4.36-1.94,8.59-3.88,12.87-5.95q12.06-5.71,23.88-11.9c15.78-8.09,31.08-17.11,46.24-26.34A732.88,732.88,0,0,0,1145,285.4Z"/></clipPath><clipPath id="clip-path-4"><path class="cls-1" d="M1148.67,395.31v25.88c-1.3,1.22-2.57,2.46-3.89,3.65a282.14,282.14,0,0,1-31.52,24.79,333.9,333.9,0,0,1-34,20.52c-5.83,3.1-11.74,6.06-17.81,8.76-1.92.87-3.81,1.7-5.7,2.52V455.55c1.89-.82,3.78-1.65,5.7-2.52,6.07-2.71,12-5.66,17.81-8.76a335.73,335.73,0,0,0,34-20.52,282.23,282.23,0,0,0,31.52-24.8C1146.1,397.77,1147.37,396.53,1148.67,395.31Z"/></clipPath><clipPath id="clip-path-5"><path class="cls-1" d="M1382.65,494.27v25.88c-34.75-29.42-68.94-59.37-103.06-89.38s-68-60.25-101.68-90.74V314.15q50.46,45.74,101.68,90.73C1313.71,434.9,1347.9,464.85,1382.65,494.27Z"/></clipPath><clipPath id="clip-path-6"><path class="cls-1" d="M1344.65,614.52V640.4c-10.51-9.2-20.47-18.79-30.32-28.47s-19.46-19.49-29-29.4c-18.92-19.87-37.18-40.2-55.07-60.79s-35.24-41.54-52.14-62.82q-15-18.68-29.48-37.73V395.31q14.55,19,29.48,37.73c16.9,21.27,34.38,42.14,52.14,62.82s36.15,40.92,55.07,60.79c9.51,9.9,19,19.8,29,29.4S1334.14,605.32,1344.65,614.52Z"/></clipPath><clipPath id="clip-path-7"><path class="cls-1" d="M1593.83,668v25.88q-54.19-42.12-106.66-85.77c-17.51-14.58-35.16-29-52.53-43.73V538.53c17.37,14.71,35,29.14,52.53,43.72Q1539.72,625.87,1593.83,668Z"/></clipPath><clipPath id="clip-path-8"><path class="cls-1" d="M1055.8,455.55v25.88c-.73,11-1.51,21.92-2.51,32.89q-2,24.23-4.85,48.47c-1.78,16.15-4,247.61-6.43,263.77-2.65,16.16-5.24,32.31-8.83,48.47V849.15c3.59-16.16,6.18-32.32,8.83-48.48,2.39-16.15,4.65-247.61,6.43-263.76s3.51-32.32,4.85-48.48C1054.29,477.47,1055.07,466.51,1055.8,455.55Z"/></clipPath><clipPath id="clip-path-9"><path class="cls-1" d="M1033.18,849.15V875c-3.59-16.16-6.17-32.31-8.83-48.47-2.38-16.16-4.64-247.62-6.42-263.77s-3.51-32.32-4.85-48.47-2.52-32.32-3.56-48.48V440c1,16.16,2.08,32.31,3.56,48.47s3,32.32,4.85,48.48,4,247.61,6.42,263.76C1027,816.83,1029.59,833,1033.18,849.15Z"/></clipPath><clipPath id="clip-path-10"><path class="cls-1" d="M974.35,393.38v25.88c-.9,25.55-1.8,51.09-3.12,76.69-1.52,30.09-2.77,383.12-4.5,413.21-1.93,30.08-3.46,11.73-5.74,41.81s-4.43,60.17-7.4,90.26v-25.88c3-30.09,5.25-60.18,7.4-90.26s3.81-11.73,5.74-41.81c1.73-30.09,3-383.13,4.5-413.21C972.55,444.46,973.45,418.92,974.35,393.38Z"/></clipPath><clipPath id="clip-path-11"><path class="cls-1" d="M953.59,1015.35v25.88c-3-30.09-5.27-60.18-7.41-90.26s-3.81-11.73-5.75-41.81c-1.73-30.09-3-383.12-4.49-413.21s-2.5-60.17-3.67-90.26V379.81c1.17,30.09,2.14,60.17,3.67,90.26s2.76,383.12,4.49,413.21c1.94,30.08,3.46,11.72,5.75,41.81S950.61,985.26,953.59,1015.35Z"/></clipPath><clipPath id="clip-path-12"><path class="cls-1" d="M759.78,393.38v25.88c-4.36-1.93-8.59-3.87-12.88-5.95q-12-5.71-23.88-11.9c-15.77-8.09-31.07-17.11-46.23-26.34a724.2,724.2,0,0,1-86.1-62.45V286.74a725.32,725.32,0,0,0,86.1,62.45c15.16,9.23,30.46,18.25,46.23,26.34q11.85,6.21,23.88,11.9C751.19,389.5,755.42,391.44,759.78,393.38Z"/></clipPath><clipPath id="clip-path-13"><path class="cls-1" d="M678.32,455.55v25.88c-1.89-.82-3.77-1.65-5.7-2.52-6.06-2.7-12-5.66-17.8-8.76a332.81,332.81,0,0,1-34-20.52,282.24,282.24,0,0,1-31.53-24.79c-1.32-1.19-2.59-2.43-3.88-3.65V395.31c1.29,1.22,2.56,2.46,3.88,3.64a282.33,282.33,0,0,0,31.53,24.8,334.62,334.62,0,0,0,34,20.52c5.83,3.1,11.74,6.05,17.8,8.76C674.55,453.9,676.43,454.73,678.32,455.55Z"/></clipPath><clipPath id="clip-path-14"><path class="cls-1" d="M556.22,314.15V340q-50.46,45.74-101.68,90.74c-34.12,30-68.32,60-103.06,89.38V494.27c34.74-29.42,68.94-59.37,103.06-89.39S522.58,344.64,556.22,314.15Z"/></clipPath><clipPath id="clip-path-15"><path class="cls-1" d="M585.46,395.31v25.88q-14.55,19-29.48,37.73c-16.9,21.28-34.38,42.14-52.15,62.82s-36.14,40.92-55.07,60.79c-9.51,9.91-19,19.81-29,29.4S400,631.2,389.48,640.4V614.52c10.51-9.2,20.47-18.79,30.32-28.47s19.45-19.5,29-29.4c18.93-19.87,37.18-40.21,55.07-60.79S539.08,454.31,556,433Q571,414.35,585.46,395.31Z"/></clipPath><clipPath id="clip-path-16"><path class="cls-1" d="M299.49,538.53v25.88c-17.37,14.71-35,29.15-52.53,43.73q-52.54,43.61-106.67,85.77V668Q194.5,625.91,247,582.25C264.46,567.67,282.12,553.24,299.49,538.53Z"/></clipPath><clipPath id="clip-path-17"><path class="cls-1" d="M701,849.15V875c-3.59-16.16-6.18-32.31-8.83-48.47-2.39-16.16-4.65-247.62-6.43-263.77s-3.51-32.32-4.85-48.47c-1-11-1.78-21.93-2.52-32.89V455.55c.74,11,1.52,21.92,2.52,32.88q2,24.24,4.85,48.48c1.78,16.15,4,247.61,6.43,263.76C694.77,816.83,697.36,833,701,849.15Z"/></clipPath><clipPath id="clip-path-18"><path class="cls-1" d="M724.61,440v25.88c-1.05,16.16-2.08,32.32-3.56,48.48s-3,32.31-4.85,48.47-4,247.61-6.42,263.77c-2.66,16.16-5.24,32.31-8.83,48.47V849.15c3.59-16.16,6.17-32.32,8.83-48.48,2.38-16.15,4.64-247.61,6.42-263.76s3.51-32.32,4.85-48.48S723.56,456.12,724.61,440Z"/></clipPath><clipPath id="clip-path-19"><path class="cls-1" d="M801.86,379.81v25.88c-1.17,30.09-2.15,60.17-3.67,90.26s-2.76,383.12-4.5,413.21c-1.93,30.08-3.45,11.73-5.74,41.81s-4.43,60.17-7.41,90.26v-25.88c3-30.09,5.27-60.18,7.41-90.26s3.81-11.73,5.74-41.81c1.74-30.09,3-383.13,4.5-413.21S800.69,409.9,801.86,379.81Z"/></clipPath><clipPath id="clip-path-20"><path class="cls-1" d="M780.54,1015.35v25.88c-3-30.09-5.25-60.18-7.4-90.26s-3.81-11.73-5.75-41.81c-1.72-30.09-3-383.12-4.5-413.21-1.31-25.6-2.21-51.14-3.11-76.69V393.38c.9,25.54,1.8,51.08,3.11,76.69,1.53,30.08,2.78,383.12,4.5,413.21,1.94,30.08,3.46,11.72,5.75,41.81S777.56,985.26,780.54,1015.35Z"/></clipPath></defs><g class="cls-2"><g class="cls-2"><g class="cls-3"><g class="cls-2"><path class="cls-4" d="M894.74,455.51v25.88c0,71.2-1.9,450.65-5.91,514.56-4.26,64.66-10.22,129.33-21.77,194v-25.89c11.55-64.66,17.51-129.32,21.77-194,4-63.91,5.91-443.36,5.91-514.56"/></g></g></g><g class="cls-2"><g class="cls-5"><g class="cls-2"><path class="cls-6" d="M867.06,1164.05v25.89c-11.54-64.66-17.5-129.33-21.77-194-4-63.9-5.91-443.27-5.91-514.53V455.53c0,71.27,1.91,450.64,5.91,514.54,4.27,64.66,10.23,129.32,21.77,194"/></g></g></g><path class="cls-7" d="M867.06,65.17c11.48,64.67,17.42,129.33,21.7,194q6.09,97,6,194c0,64.66-1.85,452.27-5.91,516.93-4.26,64.66-10.22,129.32-21.77,194-11.54-64.66-17.5-129.32-21.77-194-4-64.66-5.95-452.27-5.9-516.93s1.92-129.32,6-194C849.64,194.5,855.59,129.84,867.06,65.17Z"/></g><g class="cls-2"><polygon class="cls-8" points="1164.14 301.72 1164.14 327.6 1145.03 311.28 1145.03 285.4 1164.14 301.72"/><polygon class="cls-8" points="1177.91 314.15 1177.91 340.03 1164.14 327.6 1164.14 301.72 1177.91 314.15"/><polygon class="cls-8" points="932.26 379.81 932.26 405.69 931.78 393.32 931.78 367.44 932.26 379.81"/><g class="cls-2"><g class="cls-9"><g class="cls-2"><path class="cls-6" d="M1145,285.4v25.88a731.77,731.77,0,0,1-87.69,63.79c-15.16,9.23-30.46,18.25-46.24,26.34q-11.83,6.21-23.88,11.9c-4.28,2.08-8.51,4-12.87,5.95V393.38c4.36-1.94,8.59-3.88,12.87-5.95q12.06-5.71,23.88-11.9c15.78-8.09,31.08-17.11,46.24-26.34A732.88,732.88,0,0,0,1145,285.4"/></g></g></g><polygon class="cls-8" points="1009.52 439.96 1009.52 465.84 1008.67 452.66 1008.67 426.78 1009.52 439.96"/><g class="cls-2"><g class="cls-10"><g class="cls-2"><path class="cls-11" d="M1148.67,395.31v25.88c-1,.95-2,1.92-3,2.86V398.16c1-.93,2-1.9,3-2.85"/><path class="cls-6" d="M1145.65,398.16v25.89l-.87.79a282.14,282.14,0,0,1-31.52,24.79,333.9,333.9,0,0,1-34,20.52c-5.83,3.1-11.74,6.06-17.81,8.76-1.92.87-3.81,1.7-5.7,2.52V455.55c1.89-.82,3.78-1.65,5.7-2.52,6.07-2.71,12-5.66,17.81-8.76a335.73,335.73,0,0,0,34-20.52,282.23,282.23,0,0,0,31.52-24.8l.87-.79"/></g></g></g><g class="cls-2"><g class="cls-12"><g class="cls-2"><path class="cls-6" d="M1382.65,494.27v25.88c-34.75-29.42-68.94-59.37-103.06-89.38s-68-60.25-101.68-90.74V314.15q50.46,45.74,101.68,90.73c34.12,30,68.31,60,103.06,89.39"/></g></g></g><polygon class="cls-8" points="1434.64 538.53 1434.64 564.41 1382.65 520.15 1382.65 494.27 1434.64 538.53"/><g class="cls-2"><g class="cls-13"><g class="cls-2"><path class="cls-6" d="M1344.65,614.52V640.4c-10.51-9.2-20.47-18.79-30.32-28.47s-19.46-19.49-29-29.4c-18.92-19.87-37.18-40.2-55.07-60.79s-35.24-41.54-52.14-62.82q-15-18.68-29.48-37.73V395.31q14.55,19,29.48,37.73c16.9,21.27,34.38,42.14,52.14,62.82s36.15,40.92,55.07,60.79c9.51,9.9,19,19.8,29,29.4s19.81,19.27,30.32,28.47"/></g></g></g><g class="cls-2"><g class="cls-14"><g class="cls-2"><path class="cls-6" d="M1593.83,668v25.88q-54.19-42.12-106.66-85.77c-17.51-14.58-35.16-29-52.53-43.73V538.53c17.37,14.71,35,29.14,52.53,43.72q52.55,43.62,106.66,85.78"/></g></g></g><path class="cls-7" d="M1152.55,309.23l20.76,28.28c16,21.86,31.84,43.9,47.14,66.28s30.22,45,44.76,67.92S1293.67,518,1307,541.66c6.65,11.88,13.28,23.78,19.49,36s12.49,24.32,18.12,36.9c-10.51-9.2-20.47-18.79-30.32-28.47s-19.46-19.5-29-29.4c-18.92-19.87-37.18-40.21-55.07-60.79s-35.24-41.55-52.14-62.82q-15-18.69-29.48-37.73c-1.3,1.22-2.57,2.46-3.89,3.64a282.23,282.23,0,0,1-31.52,24.8,335.73,335.73,0,0,1-34,20.52c-5.83,3.1-11.74,6.05-17.81,8.76-1.92.87-3.81,1.7-5.7,2.52-.73,11-1.51,21.92-2.51,32.88q-2,24.24-4.85,48.48c-1.78,16.15-4,247.61-6.43,263.76-2.65,16.16-5.24,32.32-8.83,48.48-3.59-16.16-6.17-32.32-8.83-48.48-2.38-16.15-4.64-247.61-6.42-263.76s-3.51-32.32-4.85-48.48-2.52-32.31-3.56-48.47l-.84-13.18,15.19-7.82c4.25-2.19,9.7-5.15,14.51-8l14.75-9c9.74-6.13,19-12.88,28.1-19.65a323.67,323.67,0,0,0,25.59-21.7c8.22-7.44,15.15-15.7,22.09-23.8Z"/><g class="cls-2"><g class="cls-15"><g class="cls-2"><path class="cls-4" d="M1055.8,455.55v25.88c-.73,11-1.51,21.92-2.51,32.89q-2,24.23-4.85,48.47c-1.78,16.15-4,247.61-6.43,263.77-2.65,16.16-5.24,32.31-8.83,48.47V849.15c3.59-16.16,6.18-32.32,8.83-48.48,2.39-16.15,4.65-247.61,6.43-263.76s3.51-32.32,4.85-48.48c1-11,1.78-21.92,2.51-32.88"/></g></g></g><g class="cls-2"><g class="cls-16"><g class="cls-2"><path class="cls-6" d="M1033.18,849.15V875c-3.59-16.16-6.17-32.31-8.83-48.47-2.38-16.16-4.64-247.62-6.42-263.77s-3.51-32.32-4.85-48.47-2.52-32.32-3.56-48.48V440c1,16.16,2.08,32.31,3.56,48.47s3,32.32,4.85,48.48,4,247.61,6.42,263.76c2.66,16.16,5.24,32.32,8.83,48.48"/></g></g></g><g class="cls-2"><g class="cls-17"><g class="cls-2"><path class="cls-4" d="M974.35,393.38v25.88c-.9,25.55-1.8,51.09-3.12,76.69-1.52,30.09-2.77,383.12-4.5,413.21-1.93,30.08-3.46,11.73-5.74,41.81s-4.43,60.17-7.4,90.26v-25.88c3-30.09,5.25-60.18,7.4-90.26s3.81-11.73,5.74-41.81c1.73-30.09,3-383.13,4.5-413.21,1.32-25.61,2.22-51.15,3.12-76.69"/></g></g></g><g class="cls-2"><g class="cls-18"><g class="cls-2"><path class="cls-6" d="M953.59,1015.35v25.88c-3-30.09-5.27-60.18-7.41-90.26s-3.81-11.73-5.75-41.81c-1.73-30.09-3-383.12-4.49-413.21s-2.5-60.17-3.67-90.26V379.81c1.17,30.09,2.14,60.17,3.67,90.26s2.76,383.12,4.49,413.21c1.94,30.08,3.46,11.72,5.75,41.81s4.43,60.17,7.41,90.26"/></g></g></g><path class="cls-7" d="M1147.94,209.93l36.89,37.9L1188,251l39.38,40.45q42.26,40.81,83.75,82c32.19,32,64.31,63.91,95.94,96.48l47.55,48.73c15.78,16.25,31.28,32.83,46.93,49.2q46.92,49.35,92.33,100.16-54.19-42.12-106.66-85.78c-17.51-14.58-35.16-29-52.53-43.72l-52-44.26c-34.75-29.42-68.94-59.37-103.06-89.39s-68-60.24-101.68-90.73l-13.77-12.43L1145,285.4a732.88,732.88,0,0,1-87.69,63.79c-15.16,9.23-30.46,18.25-46.24,26.34q-11.83,6.21-23.88,11.9c-4.28,2.07-8.51,4-12.87,5.95-.9,25.54-1.8,51.08-3.12,76.69-1.52,30.08-2.77,383.12-4.5,413.21-1.93,30.08-3.46,11.72-5.74,41.81s-4.43,60.17-7.4,90.26c-3-30.09-5.27-60.18-7.41-90.26s-3.81-11.73-5.75-41.81c-1.73-30.09-3-383.13-4.49-413.21s-2.5-60.17-3.67-90.26l-.49-12.37L944.93,361c14.06-6.89,29.14-15.11,43.26-23.68q21.49-12.93,42.08-26.94a755.31,755.31,0,0,0,75.17-58.69l2.77-2.48A514.71,514.71,0,0,0,1147.94,209.93Z"/></g><g class="cls-2"><polygon class="cls-19" points="590.69 286.74 590.69 312.62 570.2 327.4 570.2 301.52 590.69 286.74"/><polygon class="cls-20" points="570.2 301.52 570.2 327.4 556.22 340.03 556.22 314.15 570.2 301.52"/><polygon class="cls-21" points="802.35 367.44 802.35 393.32 801.86 405.69 801.86 379.81 802.35 367.44"/><g class="cls-2"><g class="cls-22"><g class="cls-2"><path class="cls-6" d="M759.78,393.38v25.88c-4.36-1.93-8.59-3.87-12.88-5.95q-12-5.71-23.88-11.9c-15.77-8.09-31.07-17.11-46.23-26.34a724.2,724.2,0,0,1-86.1-62.45V286.74a725.32,725.32,0,0,0,86.1,62.45c15.16,9.23,30.46,18.25,46.23,26.34q11.85,6.21,23.88,11.9c4.29,2.07,8.52,4,12.88,5.95"/></g></g></g><polygon class="cls-21" points="725.45 426.78 725.45 452.66 724.61 465.84 724.61 439.96 725.45 426.78"/><g class="cls-2"><g class="cls-23"><g class="cls-2"><path class="cls-6" d="M678.32,455.55v25.88c-1.89-.82-3.77-1.65-5.7-2.52-6.06-2.7-12-5.66-17.8-8.76a332.81,332.81,0,0,1-34-20.52,282.24,282.24,0,0,1-31.53-24.79c-1.32-1.19-2.59-2.43-3.88-3.65V395.31c1.29,1.22,2.56,2.46,3.88,3.64a282.33,282.33,0,0,0,31.53,24.8,334.62,334.62,0,0,0,34,20.52c5.83,3.1,11.74,6.05,17.8,8.76,1.93.87,3.81,1.7,5.7,2.52"/></g></g></g><g class="cls-2"><g class="cls-24"><g class="cls-2"><path class="cls-6" d="M556.22,314.15V340q-50.46,45.74-101.68,90.74c-34.12,30-68.32,60-103.06,89.38V494.27c34.74-29.42,68.94-59.37,103.06-89.39s68-60.24,101.68-90.73"/></g></g></g><polygon class="cls-25" points="351.48 494.27 351.48 520.15 299.49 564.41 299.49 538.53 351.48 494.27"/><g class="cls-2"><g class="cls-26"><g class="cls-2"><path class="cls-11" d="M585.46,395.31v25.88q-14.55,19-29.48,37.73c-16.9,21.28-34.38,42.14-52.15,62.82s-36.14,40.92-55.07,60.79c-9.51,9.91-19,19.81-29,29.4-6.58,6.47-13.22,12.9-20,19.2V605.25c6.81-6.3,13.45-12.73,20-19.2,9.94-9.6,19.45-19.5,29-29.4,18.93-19.87,37.18-40.21,55.07-60.79S539.08,454.31,556,433q15-18.69,29.48-37.73"/><path class="cls-6" d="M399.77,605.25v25.88q-5.07,4.7-10.29,9.27V614.52q5.22-4.57,10.29-9.27"/></g></g></g><g class="cls-2"><g class="cls-27"><g class="cls-2"><path class="cls-6" d="M299.49,538.53v25.88c-17.37,14.71-35,29.15-52.53,43.73q-52.54,43.61-106.67,85.77V668Q194.5,625.91,247,582.25c17.5-14.58,35.16-29,52.53-43.72"/></g></g></g><g class="cls-2"><g class="cls-28"><g class="cls-2"><path class="cls-6" d="M701,849.15V875c-3.59-16.16-6.18-32.31-8.83-48.47-2.39-16.16-4.65-247.62-6.43-263.77s-3.51-32.32-4.85-48.47c-1-11-1.78-21.93-2.52-32.89V455.55c.74,11,1.52,21.92,2.52,32.88q2,24.24,4.85,48.48c1.78,16.15,4,247.61,6.43,263.76,2.65,16.16,5.24,32.32,8.83,48.48"/></g></g></g><g class="cls-2"><g class="cls-29"><g class="cls-2"><path class="cls-4" d="M724.61,440v25.88c-1.05,16.16-2.08,32.32-3.56,48.48s-3,32.31-4.85,48.47-4,247.61-6.42,263.77c-2.66,16.16-5.24,32.31-8.83,48.47V849.15c3.59-16.16,6.17-32.32,8.83-48.48,2.38-16.15,4.64-247.61,6.42-263.76s3.51-32.32,4.85-48.48,2.51-32.31,3.56-48.47"/></g></g></g><path class="cls-7" d="M581.58,309.23l23.64,27.6c6.94,8.1,13.87,16.36,22.09,23.8a320.1,320.1,0,0,0,25.59,21.7C662,389.1,671.25,395.85,681,402l14.76,9c4.81,2.86,10.26,5.82,14.51,8l15.19,7.82L724.61,440c-1.05,16.16-2.08,32.31-3.56,48.47s-3,32.32-4.85,48.48-4,247.61-6.42,263.76c-2.66,16.16-5.24,32.32-8.83,48.48-3.59-16.16-6.18-32.32-8.83-48.48-2.39-16.15-4.65-247.61-6.43-263.76s-3.51-32.32-4.85-48.48c-1-11-1.78-21.92-2.52-32.88-1.89-.82-3.77-1.65-5.7-2.52-6.06-2.71-12-5.66-17.8-8.76a334.62,334.62,0,0,1-34-20.52A282.33,282.33,0,0,1,589.34,399c-1.32-1.18-2.59-2.42-3.88-3.64Q570.91,414.32,556,433c-16.9,21.27-34.38,42.14-52.15,62.82s-36.14,40.92-55.07,60.79c-9.51,9.9-19,19.8-29,29.4S400,605.32,389.48,614.52c5.63-12.58,11.82-24.78,18.12-36.9s12.84-24.08,19.49-36c13.37-23.71,27.42-47,41.83-69.95s29.36-45.61,44.76-67.92,31.09-44.42,47.14-66.28Z"/><g class="cls-2"><g class="cls-30"><g class="cls-2"><path class="cls-4" d="M801.86,379.81v25.88c-1.17,30.09-2.15,60.17-3.67,90.26s-2.76,383.12-4.5,413.21c-1.93,30.08-3.45,11.73-5.74,41.81s-4.43,60.17-7.41,90.26v-25.88c3-30.09,5.27-60.18,7.41-90.26s3.81-11.73,5.74-41.81c1.74-30.09,3-383.13,4.5-413.21s2.5-60.17,3.67-90.26"/></g></g></g><path class="cls-7" d="M586.19,209.93a514.57,514.57,0,0,0,39.72,39.24l2.78,2.48a755.18,755.18,0,0,0,75.16,58.69q20.56,14.06,42.09,26.94c14.12,8.57,29.2,16.79,43.25,23.68l13.16,6.48-.49,12.37c-1.17,30.09-2.15,60.17-3.67,90.26s-2.76,383.12-4.5,413.21c-1.93,30.08-3.45,11.72-5.74,41.81s-4.43,60.17-7.41,90.26c-3-30.09-5.25-60.18-7.4-90.26s-3.81-11.73-5.75-41.81c-1.72-30.09-3-383.13-4.5-413.21-1.31-25.61-2.21-51.15-3.11-76.69-4.36-1.94-8.59-3.88-12.88-5.95q-12-5.71-23.88-11.9c-15.77-8.09-31.07-17.11-46.23-26.34a725.32,725.32,0,0,1-86.1-62.45l-20.5,14.78-14,12.63q-50.46,45.74-101.68,90.73c-34.12,30-68.32,60-103.06,89.39l-52,44.26c-17.37,14.71-35,29.14-52.53,43.72Q194.42,625.87,140.29,668q45.38-50.94,92.34-100.16c15.64-16.37,31.15-33,46.93-49.2l47.55-48.73c31.63-32.57,63.75-64.53,95.93-96.48q41.54-41.11,83.62-81.83L546.17,251l3.13-3.21Z"/><g class="cls-2"><g class="cls-31"><g class="cls-2"><path class="cls-6" d="M780.54,1015.35v25.88c-3-30.09-5.25-60.18-7.4-90.26s-3.81-11.73-5.75-41.81c-1.72-30.09-3-383.12-4.5-413.21-1.31-25.6-2.21-51.14-3.11-76.69V393.38c.9,25.54,1.8,51.08,3.11,76.69,1.53,30.08,2.78,383.12,4.5,413.21,1.94,30.08,3.46,11.72,5.75,41.81s4.42,60.17,7.4,90.26"/></g></g></g></g></svg>