<svg id="Layer_1" data-name="Layer 1" xmlns="http://www.w3.org/2000/svg" viewBox="0 0 3897.18 712.69"><defs><style>.cls-1{fill:#fff;}</style></defs><path class="cls-1" d="M490.28,140.78c-2.45-38.29-5.85-76.58-12.41-114.88-6.56,38.3-10,76.59-12.41,114.88s-3.41,76.59-3.43,114.89,1.06,267.84,3.38,306.14,5.86,76.58,12.46,114.88c6.6-38.3,10-76.59,12.45-114.88s3.4-267.85,3.38-306.14S492.6,179.08,490.28,140.78Z"/><path class="cls-1" d="M840.79,323.62c-8.95-9.7-17.82-19.52-26.84-29.15l-27.21-28.86c-18.09-19.28-36.46-38.21-54.87-57.14Q708.11,184.13,684,160l-.08-.08-22.53-24-1.78-1.9-21.11-22.45a301.8,301.8,0,0,1-22.73,23.24l-1.58,1.46a433.35,433.35,0,0,1-43,34.77q-11.76,8.31-24.07,16c-8.08,5.07-16.71,9.94-24.75,14l-7.52,3.84.27,7.33c.68,17.81,1.23,35.63,2.1,53.45s1.59,226.89,2.58,244.71,2,7,3.28,24.76,2.54,35.64,4.24,53.46c1.7-17.82,3-35.64,4.24-53.46s2.17-6.94,3.28-24.76,1.71-226.89,2.58-244.71c.75-15.17,1.26-30.29,1.78-45.42,2.49-1.14,4.91-2.29,7.36-3.52,4.6-2.26,9.15-4.59,13.66-7.05,9-4.79,17.78-10.13,26.45-15.6a415.23,415.23,0,0,0,49.26-37c.31-.28.63-.51.91-.79l10.81,9.54.12.12,7.88,7.36q28.86,27.09,58.16,53.73c19.52,17.78,39.08,35.52,59,52.94l29.73,26.21c9.94,8.71,20,17.27,30.05,25.9q30.06,25.83,61,50.8Q867.66,352.75,840.79,323.62Z"/><path class="cls-1" d="M729.55,308.09c-7.65-14-15.68-27.81-23.93-41.43s-16.79-27-25.6-40.22-17.79-26.31-27-39.25l-11.87-16.75-13.53,16.35A149.84,149.84,0,0,1,615,200.88a188.89,188.89,0,0,1-14.64,12.85c-5.19,4-10.5,8-16.08,11.64l-8.43,5.31c-2.76,1.69-5.87,3.44-8.31,4.74l-8.69,4.64.49,7.8c.59,9.57,1.19,19.14,2,28.71s1.7,19.13,2.78,28.7,2.31,146.65,3.67,156.21c1.52,9.57,3,19.14,5,28.71,2.06-9.57,3.53-19.14,5.05-28.71,1.37-9.56,2.66-146.64,3.68-156.21s2-19.14,2.78-28.7c.57-6.5,1-13,1.43-19.48,1.08-.48,2.16-1,3.26-1.49,3.48-1.6,6.85-3.36,10.19-5.19a192,192,0,0,0,19.43-12.15,163.47,163.47,0,0,0,18-14.69c.75-.7,1.48-1.43,2.22-2.15,5.55,7.5,11.14,15,16.86,22.34,9.67,12.6,19.67,25,29.83,37.2s20.68,24.24,31.5,36c5.44,5.86,10.89,11.72,16.57,17.41s11.33,11.41,17.35,16.86c-3.22-7.45-6.77-14.68-10.37-21.85S733.35,315.13,729.55,308.09Z"/><path class="cls-1" d="M408.58,187.05q-12.3-7.65-24.08-16a434.51,434.51,0,0,1-43-34.77l-1.58-1.46a301.8,301.8,0,0,1-22.73-23.24l-21.1,22.45-1.78,1.9-22.53,24-.08.08q-24.06,24.06-47.83,48.46c-18.41,18.93-36.79,37.86-54.88,57.14l-27.2,28.86c-9,9.63-17.9,19.45-26.85,29.15q-26.85,29.22-52.82,59.31,31-24.94,61-50.8c10-8.63,20.11-17.19,30.05-25.9L182.93,280c19.87-17.42,39.43-35.16,58.95-52.94s38.92-35.67,58.17-53.73l7.88-7.36.11-.12,10.81-9.54c.28.28.6.51.91.79a416.87,416.87,0,0,0,49.26,37c8.67,5.47,17.42,10.81,26.45,15.6,4.51,2.46,9.07,4.79,13.66,7.05,2.45,1.23,4.87,2.38,7.36,3.52.52,15.13,1,30.25,1.79,45.42.87,17.82,1.58,226.89,2.57,244.71s2,7,3.29,24.76,2.53,35.64,4.23,53.46c1.71-17.82,3-35.64,4.24-53.46s2.18-6.94,3.29-24.76,1.7-226.89,2.57-244.71,1.42-35.64,2.1-53.45l.28-7.33-7.53-3.84C425.28,197,416.65,192.12,408.58,187.05Z"/><path class="cls-1" d="M379.86,230.68l-8.43-5.31c-5.58-3.63-10.88-7.63-16.08-11.64a186.89,186.89,0,0,1-14.63-12.85,148.58,148.58,0,0,1-12.64-14.09l-13.52-16.35-11.88,16.75c-9.18,12.94-18.22,26-27,39.25s-17.28,26.66-25.6,40.22-16.28,27.39-23.93,41.43c-3.8,7-7.59,14.08-11.15,21.3s-7.14,14.4-10.37,21.85c6-5.45,11.72-11.13,17.35-16.86s11.13-11.55,16.57-17.41c10.83-11.77,21.27-23.82,31.5-36s20.17-24.6,29.83-37.2c5.72-7.38,11.32-14.84,16.87-22.34.74.72,1.46,1.45,2.22,2.15a161.63,161.63,0,0,0,18,14.69,190.73,190.73,0,0,0,19.42,12.15c3.34,1.83,6.72,3.59,10.19,5.19,1.1.51,2.18,1,3.26,1.49.42,6.49.87,13,1.44,19.48q1.14,14.34,2.77,28.7c1,9.57,2.31,146.65,3.68,156.21s3,19.14,5,28.71c2.05-9.57,3.53-19.14,5.05-28.71,1.36-9.56,2.66-146.64,3.68-156.21s2-19.14,2.77-28.7,1.44-19.14,2-28.71l.49-7.8-8.69-4.64C385.74,234.12,382.62,232.37,379.86,230.68Z"/><path class="cls-1" d="M1577.81,279.88h87.35l.14,43c6.31-27.44,28.38-43,57.94-43,17.17,0,24,2.87,24,2.87v77c-58-9.86-63.84,17.59-63.84,43.35v75.42h-84.35V311.94Z"/><path class="cls-1" d="M2616.38,279.88h87.36l.13,43c6.31-27.44,28.39-43,57.94-43,17.17,0,24,2.87,24,2.87v77c-58-9.86-63.84,17.59-63.84,43.35v75.42h-84.35V311.94Z"/><path class="cls-1" d="M2276,279.88V478.51H2174.33a46.73,46.73,0,0,1-33.5-13.51l-69.76-82.32V307.84l-21.28-28h105.62v99.94l36.26,44.63V279.88Z"/><path class="cls-1" d="M3487.37,408.89l-50.06-49.55a4.3,4.3,0,0,1-1.57-3.28c0-3.27,2.37-4.92,7.09-4.92h66.22V279.88H3319.86l22.66,22.94a32.22,32.22,0,0,0-.58,6.14c0,14.75,3.94,23.35,16.55,36.86l56.36,63.07a3.79,3.79,0,0,1,1.18,2.87c0,2.87-2.36,4.5-7.09,4.5h-67.79v62.25h129.67c25.22,0,38.62-14.74,38.62-31.12C3509.44,433.87,3505.1,426.5,3487.37,408.89Z"/><path class="cls-1" d="M1469,281.93H1302.7L1324,314V387.8h0v23.55c0,27.85,7.1,46.28,21.28,56.11s30,13.1,53.61,13.1H1469c43.75,0,63.06-20.47,63.06-65.11v-64.3C1532.08,304.87,1511.2,281.93,1469,281.93Zm-21.28,134.33c0,14.75-3.94,20.48-16.55,20.48h-6.3c-12.62,0-16.56-5.73-16.56-20.48V350.33c0-14.75,3.94-20.48,16.56-20.48h6.3c12.61,0,16.55,5.73,16.55,20.48Z"/><path class="cls-1" d="M3264.45,435.51c-16.94,0-20.49-2.45-20.49-35.93v-109H3138.34l21.28,32.05V420c0,49.15,19.7,69.21,70.15,69.21h44.93V435.51Z"/><path class="cls-1" d="M3161.2,253.46c0,6.56,3.94,9.84,11.42,9.84H3244V220.91c0-6.56-3.94-9.83-11.43-9.83h-92.12l20.79,31.3Z"/><path class="cls-1" d="M1992.38,400.7c17.34,0,22.46-7,22.46-23.75V344.18c0-45.46-16.94-64.3-60.69-64.3h-84.34c-1.13,0-2.19.09-3.29.12v-.12h-81.18l21.29,32.06v47.87h.12V409.3c0,27.85,7.1,46.28,21.28,56.11s30,13.1,53.61,13.1h74.48c42.17,0,58.33-18.42,56.75-61.43h-82c0,12.7-3.94,17.61-15.37,17.61h-7.88c-12.62,0-16.56-5.73-16.56-20.48V400.7Zm-101.29-52.42c0-14.75,3.94-20.48,16.56-20.48h6.3c12.61,0,16.55,5.73,16.55,20.48v24.16h-39.41Z"/><path class="cls-1" d="M2535.54,400.7c17.34,0,22.46-7,22.46-23.75V344.18c0-45.46-16.94-64.3-60.69-64.3H2413c-1.13,0-2.19.09-3.29.12v-.12H2328.5l21.29,32.06v47.87h.12V409.3c0,27.85,7.1,46.28,21.28,56.11s30,13.1,53.61,13.1h74.49c42.16,0,58.32-18.42,56.74-61.43h-82c0,12.7-3.94,17.61-15.37,17.61h-7.88c-12.62,0-16.56-5.73-16.56-20.48V400.7Zm-101.29-52.42c0-14.75,3.94-20.48,16.56-20.48h6.3c12.61,0,16.55,5.73,16.55,20.48v24.16h-39.41Z"/><path class="cls-1" d="M3767.11,400.7c17.34,0,22.46-7,22.46-23.75V344.18c0-45.46-17-64.3-60.7-64.3h-84.33c-1.14,0-2.19.09-3.3.12v-.12h-81.17l21.28,32.06v47.87h.13V409.3c0,27.85,7.09,46.28,21.28,56.11s29.95,13.1,53.6,13.1h74.49c42.17,0,58.33-18.42,56.75-61.43h-82c0,12.7-4,17.61-15.38,17.61h-7.88c-12.61,0-16.56-5.73-16.56-20.48V400.7Zm-101.3-52.42c0-14.75,4-20.48,16.56-20.48h6.3c12.62,0,16.56,5.73,16.56,20.48v24.16h-39.42Z"/><path class="cls-1" d="M1232.2,392l-64.64-33.27.13,122h-84.47v-228l-28.38-33.29H1261v61.85h-93.41v25.09l64.64,33.26Z"/><path class="cls-1" d="M3006.1,479.77l-37.84-59.39H2952.5v59.39h-84.34v-228l-28.38-33.28H3023c25.23,0,42.18,5.32,51.24,16.38s13.8,30.72,13.8,59.8v62.93c0,31-3.25,48.47-32,57.89l45,64.3Zm-53.6-204v90.92h34.68c12.61,0,15.76-4.91,15.76-22.94V297.93c0-18-3.15-22.12-15.76-22.12Z"/></svg>